<?xml version="1.0" standalone="no"?>
<!DOCTYPE svg PUBLIC "-//W3C//DTD SVG 20010904//EN"
 "http://www.w3.org/TR/2001/REC-SVG-20010904/DTD/svg10.dtd">
<svg version="1.0" xmlns="http://www.w3.org/2000/svg"
 width="177.000000pt" height="175.000000pt" viewBox="0 0 177.000000 175.000000"
 preserveAspectRatio="xMidYMid meet">
<metadata>
Created by potrace 1.13, written by Peter Selinger 2001-2015
</metadata>
<g transform="translate(0.000000,175.000000) scale(0.100000,-0.100000)"
fill="#000000" stroke="none">
<path d="M738 1730 c-291 -49 -555 -265 -659 -540 -79 -207 -72 -463 19 -662
210 -464 787 -647 1223 -388 352 209 510 633 379 1019 -28 85 -52 131 -113
219 -156 226 -425 364 -707 361 -52 -1 -116 -5 -142 -9z m280 -719 c66 -12
385 -17 473 -7 56 7 67 6 72 -8 14 -36 0 -42 -76 -34 -39 4 -92 6 -117 6 -25
0 5 -6 65 -12 107 -11 110 -12 110 -35 0 -19 -8 -27 -35 -37 -50 -18 -250 -18
-285 0 -20 11 -35 12 -53 5 -78 -30 -177 -52 -257 -59 l-90 -8 90 2 c66 2 114
9 178 29 102 31 124 33 149 10 25 -22 23 -58 -4 -83 -41 -38 -142 -81 -214
-91 -81 -11 -121 -23 -144 -44 -26 -24 -145 -45 -255 -45 l-100 0 -49 40 c-58
48 -77 50 -249 19 -65 -12 -120 -19 -122 -17 -13 13 -32 159 -31 238 l1 95 50
7 c112 17 260 25 295 15 38 -10 367 7 430 23 37 9 79 7 168 -9z"/>
</g>
</svg>
