<?xml version="1.0" standalone="no"?>
<!DOCTYPE svg PUBLIC "-//W3C//DTD SVG 20010904//EN"
 "http://www.w3.org/TR/2001/REC-SVG-20010904/DTD/svg10.dtd">
<svg version="1.0" xmlns="http://www.w3.org/2000/svg"
 width="175.000000pt" height="174.000000pt" viewBox="0 0 175.000000 174.000000"
 preserveAspectRatio="xMidYMid meet">
<metadata>
Created by potrace 1.13, written by Peter Selinger 2001-2015
</metadata>
<g transform="translate(0.000000,174.000000) scale(0.100000,-0.100000)"
fill="#000000" stroke="none">
<path d="M745 1723 c-288 -45 -531 -229 -654 -495 -61 -130 -75 -201 -74 -363
0 -122 3 -151 27 -230 88 -290 300 -502 591 -591 80 -24 106 -27 235 -27 117
0 160 4 223 21 340 93 597 388 634 727 41 372 -144 713 -472 874 -55 27 -129
57 -165 66 -64 16 -284 28 -345 18z m491 -610 c16 -11 34 -48 34 -69 0 -10 7
-26 17 -36 15 -17 22 -52 52 -253 11 -76 -2 -94 -68 -96 -25 -1 -36 -4 -24 -6
37 -7 46 -27 30 -65 -13 -31 -21 -35 -113 -62 -54 -15 -106 -30 -114 -32 -9
-2 -31 4 -50 15 -187 101 -271 147 -301 163 -24 12 -66 21 -122 24 -95 6 -175
-10 -359 -72 -56 -19 -105 -31 -109 -27 -19 21 -41 130 -46 232 -6 124 -4 130
52 131 17 0 104 15 195 34 91 18 180 31 198 28 18 -2 46 2 64 9 17 7 50 12 74
10 32 -1 381 63 391 72 6 6 190 6 199 0z"/>
</g>
</svg>
