<?xml version="1.0" standalone="no"?>
<!DOCTYPE svg PUBLIC "-//W3C//DTD SVG 20010904//EN"
 "http://www.w3.org/TR/2001/REC-SVG-20010904/DTD/svg10.dtd">
<svg version="1.0" xmlns="http://www.w3.org/2000/svg"
 width="177.000000pt" height="176.000000pt" viewBox="0 0 177.000000 176.000000"
 preserveAspectRatio="xMidYMid meet">
<metadata>
Created by potrace 1.13, written by Peter Selinger 2001-2015
</metadata>
<g transform="translate(0.000000,176.000000) scale(0.100000,-0.100000)"
fill="#000000" stroke="none">
<path d="M698 1721 c-318 -70 -573 -321 -649 -639 -29 -120 -29 -296 0 -405
90 -339 351 -583 686 -642 111 -19 189 -19 300 0 344 60 620 326 696 670 21
94 16 294 -10 390 -80 299 -307 531 -603 616 -107 30 -304 35 -420 10z m832
-672 c0 -36 -69 -67 -230 -103 -85 -20 -173 -38 -195 -42 l-40 -6 45 -12 c25
-6 71 -27 104 -45 32 -19 97 -46 145 -62 88 -28 106 -44 81 -74 -28 -34 -189
-5 -445 81 -5 2 -16 0 -23 -5 -11 -6 -10 -20 4 -74 19 -71 12 -97 -27 -97 -14
0 -19 -7 -19 -29 0 -15 -9 -40 -21 -55 -29 -37 -72 -35 -111 6 -26 28 -35 31
-78 29 -41 -2 -50 1 -60 20 -11 20 -10 21 6 15 12 -4 15 -4 9 2 -5 5 -36 14
-67 21 -32 7 -83 25 -115 41 -32 15 -74 31 -93 35 -19 4 -64 16 -100 26 -58
18 -72 19 -133 8 -53 -10 -70 -10 -80 0 -17 17 -17 285 1 303 10 10 47 12 155
9 265 -8 532 -5 599 7 44 8 74 9 92 3 52 -21 396 -14 475 9 17 5 31 7 31 5 0
-2 15 2 33 10 36 15 57 5 57 -26z"/>
</g>
</svg>
